<svg width="73" height="20" viewBox="0 0 73 20" fill="none" xmlns="http://www.w3.org/2000/svg">
<path d="M24.9243 13.8521H30.3674V15.9114H22.3608V3.46997H24.9243V13.8521Z" fill="#FF9901"/>
<path d="M37.041 15.9114C36.9271 15.6892 36.8445 15.4129 36.7932 15.0825C36.1951 15.749 35.4175 16.0823 34.4604 16.0823C33.5547 16.0823 32.8027 15.8202 32.2046 15.2961C31.6121 14.7721 31.3159 14.1112 31.3159 13.3137C31.3159 12.3339 31.6777 11.582 32.4011 11.0579C33.1303 10.5338 34.1813 10.2689 35.5542 10.2632H36.6907V9.7334C36.6907 9.30615 36.5796 8.96436 36.3574 8.70801C36.141 8.45166 35.7963 8.32349 35.3235 8.32349C34.9076 8.32349 34.5801 8.42318 34.3408 8.62256C34.1073 8.82194 33.9905 9.09538 33.9905 9.44287H31.521C31.521 8.90739 31.6862 8.41178 32.0166 7.95605C32.347 7.50033 32.8141 7.14429 33.418 6.88794C34.0218 6.6259 34.6997 6.49487 35.4517 6.49487C36.591 6.49487 37.4939 6.78255 38.1604 7.35791C38.8326 7.92757 39.1687 8.73079 39.1687 9.76758V13.7751C39.1744 14.6524 39.2969 15.3161 39.5361 15.7661V15.9114H37.041ZM34.9988 14.1938C35.3634 14.1938 35.6995 14.1141 36.0071 13.9546C36.3147 13.7894 36.5426 13.5701 36.6907 13.2966V11.7073H35.7678C34.5317 11.7073 33.8737 12.1345 33.7939 12.989L33.7854 13.1343C33.7854 13.4419 33.8936 13.6954 34.1101 13.8948C34.3266 14.0942 34.6228 14.1938 34.9988 14.1938Z" fill="#FF9901"/>
<path d="M46.073 13.3564C46.073 13.0545 45.922 12.8181 45.6201 12.6472C45.3239 12.4706 44.8454 12.314 44.1846 12.1772C41.9857 11.7158 40.8862 10.7816 40.8862 9.37451C40.8862 8.5542 41.2252 7.87061 41.9031 7.32373C42.5867 6.77116 43.4782 6.49487 44.5776 6.49487C45.7511 6.49487 46.6882 6.77116 47.3889 7.32373C48.0953 7.8763 48.4485 8.59408 48.4485 9.47705H45.979C45.979 9.12386 45.8651 8.83333 45.6372 8.60547C45.4093 8.37191 45.0533 8.25513 44.5691 8.25513C44.1532 8.25513 43.8314 8.34912 43.6035 8.53711C43.3757 8.7251 43.2617 8.96436 43.2617 9.25488C43.2617 9.52832 43.3899 9.75049 43.6462 9.92139C43.9083 10.0866 44.3469 10.2319 44.9622 10.3572C45.5774 10.4768 46.0958 10.6135 46.5173 10.7673C47.8219 11.2458 48.4741 12.0747 48.4741 13.2539C48.4741 14.097 48.1124 14.7806 47.3889 15.3047C46.6654 15.8231 45.7312 16.0823 44.5862 16.0823C43.8114 16.0823 43.1222 15.9456 42.5183 15.6721C41.9202 15.393 41.4502 15.0142 41.1084 14.5356C40.7666 14.0514 40.5957 13.5302 40.5957 12.9719H42.937C42.9598 13.4106 43.1222 13.7467 43.4241 13.9802C43.726 14.2138 44.1305 14.3306 44.6375 14.3306C45.1103 14.3306 45.4663 14.2423 45.7056 14.0657C45.9505 13.8834 46.073 13.647 46.073 13.3564Z" fill="#FF9901"/>
<path d="M55.0793 13.3564C55.0793 13.0545 54.9284 12.8181 54.6265 12.6472C54.3302 12.4706 53.8517 12.314 53.1909 12.1772C50.992 11.7158 49.8926 10.7816 49.8926 9.37451C49.8926 8.5542 50.2315 7.87061 50.9094 7.32373C51.593 6.77116 52.4845 6.49487 53.584 6.49487C54.7575 6.49487 55.6946 6.77116 56.3953 7.32373C57.1016 7.8763 57.4548 8.59408 57.4548 9.47705H54.9854C54.9854 9.12386 54.8714 8.83333 54.6436 8.60547C54.4157 8.37191 54.0597 8.25513 53.5754 8.25513C53.1596 8.25513 52.8377 8.34912 52.6099 8.53711C52.382 8.7251 52.2681 8.96436 52.2681 9.25488C52.2681 9.52832 52.3962 9.75049 52.6526 9.92139C52.9146 10.0866 53.3533 10.2319 53.9685 10.3572C54.5837 10.4768 55.1021 10.6135 55.5237 10.7673C56.8282 11.2458 57.4805 12.0747 57.4805 13.2539C57.4805 14.097 57.1187 14.7806 56.3953 15.3047C55.6718 15.8231 54.7375 16.0823 53.5925 16.0823C52.8178 16.0823 52.1285 15.9456 51.5247 15.6721C50.9265 15.393 50.4565 15.0142 50.1147 14.5356C49.7729 14.0514 49.6021 13.5302 49.6021 12.9719H51.9434C51.9661 13.4106 52.1285 13.7467 52.4304 13.9802C52.7323 14.2138 53.1368 14.3306 53.6438 14.3306C54.1166 14.3306 54.4727 14.2423 54.7119 14.0657C54.9569 13.8834 55.0793 13.647 55.0793 13.3564Z" fill="#FF9901"/>
<path d="M61.6846 15.9114H59.2065V6.66577H61.6846V15.9114ZM59.0613 4.27319C59.0613 3.90291 59.1838 3.59814 59.4287 3.35889C59.6794 3.11963 60.0183 3 60.4456 3C60.8671 3 61.2032 3.11963 61.4539 3.35889C61.7045 3.59814 61.8298 3.90291 61.8298 4.27319C61.8298 4.64917 61.7017 4.95679 61.4453 5.19604C61.1947 5.4353 60.8614 5.55493 60.4456 5.55493C60.0297 5.55493 59.6936 5.4353 59.4373 5.19604C59.1866 4.95679 59.0613 4.64917 59.0613 4.27319Z" fill="#FF9901"/>
<path d="M63.3423 11.2031C63.3423 10.286 63.5189 9.46851 63.8721 8.75073C64.2253 8.03296 64.7323 7.47754 65.3931 7.08447C66.0596 6.69141 66.8315 6.49487 67.7087 6.49487C68.9563 6.49487 69.9731 6.87655 70.7593 7.63989C71.5511 8.40324 71.9926 9.44002 72.0837 10.7502L72.1008 11.3826C72.1008 12.801 71.7049 13.9403 70.9131 14.8005C70.1213 15.655 69.0588 16.0823 67.7258 16.0823C66.3928 16.0823 65.3276 15.655 64.53 14.8005C63.7382 13.946 63.3423 12.7839 63.3423 11.3142V11.2031ZM65.8118 11.3826C65.8118 12.2598 65.977 12.932 66.3074 13.3992C66.6378 13.8606 67.1106 14.0913 67.7258 14.0913C68.324 14.0913 68.7911 13.8634 69.1272 13.4077C69.4633 12.9463 69.6313 12.2114 69.6313 11.2031C69.6313 10.3429 69.4633 9.67643 69.1272 9.20361C68.7911 8.73079 68.3183 8.49438 67.7087 8.49438C67.1049 8.49438 66.6378 8.73079 66.3074 9.20361C65.977 9.67074 65.8118 10.3971 65.8118 11.3826Z" fill="#FF9901"/>
<path fill-rule="evenodd" clip-rule="evenodd" d="M4 0C1.79086 0 0 1.79086 0 4V12C0 16.4183 3.58172 20 8 20C12.4183 20 16 16.4183 16 12V4C16 1.79086 14.2091 0 12 0H4ZM4.00026 2.5C2.34341 2.5 1.00026 3.84315 1.00026 5.5C1.00026 7.15685 2.34341 8.5 4.00026 8.5H12.0003C13.6571 8.5 15.0003 7.15685 15.0003 5.5C15.0003 3.84315 13.6571 2.5 12.0003 2.5H4.00026Z" fill="#FF9901"/>
<ellipse cx="4.99974" cy="5.5" rx="1" ry="1" fill="#FF9901"/>
<ellipse cx="11" cy="5.5" rx="1" ry="1" fill="#FF9901"/>
</svg>
