<svg width="77" height="96" viewBox="0 0 77 96" fill="none" xmlns="http://www.w3.org/2000/svg">
<path fill-rule="evenodd" clip-rule="evenodd" d="M8 0C3.58172 0 0 3.58172 0 8V57.6C0 78.8077 17.1923 96 38.4 96C59.6077 96 76.8 78.8077 76.8 57.6V8C76.8 3.58172 73.2183 0 68.8 0H8ZM16.8013 12C10.1739 12 4.80127 17.3726 4.80127 24V28.8C4.80127 35.4274 10.1739 40.8 16.8013 40.8H60.0013C66.6287 40.8 72.0013 35.4274 72.0013 28.8V24C72.0013 17.3726 66.6287 12 60.0013 12H16.8013Z" fill="#FF9901"/>
<ellipse cx="23.9987" cy="26.4" rx="4.8" ry="4.8" fill="#FF9901"/>
<ellipse cx="52.8" cy="26.4" rx="4.8" ry="4.8" fill="#FF9901"/>
</svg>
