<svg width="173" height="48" viewBox="0 0 173 48" fill="none" xmlns="http://www.w3.org/2000/svg">
<path d="M60.4358 35.0883H74.9905V38.4H56.3647V7.6875H60.4358V35.0883Z" fill="#FF9901"/>
<path d="M92.225 38.4C92 37.95 91.8172 37.1484 91.6765 35.9953C89.8625 37.8797 87.6968 38.8219 85.1797 38.8219C82.9297 38.8219 81.0804 38.1891 79.632 36.9234C78.1976 35.6437 77.4804 34.0266 77.4804 32.0719C77.4804 29.6953 78.3804 27.8531 80.1804 26.5453C81.9945 25.2234 84.5398 24.5625 87.8164 24.5625H91.6132V22.7695C91.6132 21.4055 91.2054 20.3227 90.3898 19.5211C89.5742 18.7055 88.3718 18.2977 86.7828 18.2977C85.3906 18.2977 84.2234 18.6492 83.2812 19.3523C82.339 20.0555 81.8679 20.9062 81.8679 21.9047H77.9445C77.9445 20.7656 78.3453 19.6687 79.1468 18.6141C79.9625 17.5453 81.0593 16.7016 82.4375 16.0828C83.8297 15.4641 85.3554 15.1547 87.0148 15.1547C89.6445 15.1547 91.7047 15.8156 93.1953 17.1375C94.6859 18.4453 95.4593 20.2523 95.5156 22.5586V33.0633C95.5156 35.1586 95.7828 36.825 96.3172 38.0625V38.4H92.225ZM85.7492 35.4258C86.9726 35.4258 88.1328 35.1094 89.2297 34.4766C90.3265 33.8437 91.1211 33.0211 91.6132 32.0086V27.3258H88.5547C83.7734 27.3258 81.3828 28.725 81.3828 31.5234C81.3828 32.7469 81.7906 33.7031 82.6062 34.3922C83.4218 35.0812 84.4695 35.4258 85.7492 35.4258Z" fill="#FF9901"/>
<path d="M114.058 32.3461C114.058 31.2914 113.657 30.4758 112.855 29.8992C112.068 29.3086 110.683 28.8023 108.7 28.3805C106.731 27.9586 105.163 27.4523 103.996 26.8617C102.843 26.2711 101.985 25.568 101.423 24.7523C100.874 23.9367 100.6 22.9664 100.6 21.8414C100.6 19.9711 101.388 18.3891 102.963 17.0953C104.552 15.8016 106.577 15.1547 109.038 15.1547C111.625 15.1547 113.72 15.8227 115.323 17.1586C116.941 18.4945 117.749 20.2031 117.749 22.2844H113.826C113.826 21.2156 113.369 20.2945 112.455 19.5211C111.555 18.7477 110.416 18.3609 109.038 18.3609C107.617 18.3609 106.506 18.6703 105.705 19.2891C104.903 19.9078 104.502 20.7164 104.502 21.7148C104.502 22.657 104.875 23.3672 105.62 23.8453C106.366 24.3234 107.709 24.7805 109.649 25.2164C111.604 25.6523 113.186 26.1727 114.395 26.7773C115.605 27.382 116.498 28.1133 117.074 28.9711C117.665 29.8148 117.96 30.8484 117.96 32.0719C117.96 34.1109 117.145 35.7492 115.513 36.9867C113.882 38.2102 111.766 38.8219 109.164 38.8219C107.336 38.8219 105.719 38.4984 104.313 37.8516C102.906 37.2047 101.802 36.3047 101.001 35.1516C100.213 33.9844 99.8196 32.7258 99.8196 31.3758H103.722C103.792 32.6836 104.313 33.7242 105.283 34.4977C106.267 35.257 107.561 35.6367 109.164 35.6367C110.641 35.6367 111.822 35.3414 112.708 34.7508C113.608 34.1461 114.058 33.3445 114.058 32.3461Z" fill="#FF9901"/>
<path d="M135.469 32.3461C135.469 31.2914 135.068 30.4758 134.266 29.8992C133.479 29.3086 132.094 28.8023 130.111 28.3805C128.142 27.9586 126.574 27.4523 125.407 26.8617C124.254 26.2711 123.396 25.568 122.834 24.7523C122.285 23.9367 122.011 22.9664 122.011 21.8414C122.011 19.9711 122.799 18.3891 124.374 17.0953C125.963 15.8016 127.988 15.1547 130.449 15.1547C133.036 15.1547 135.131 15.8227 136.734 17.1586C138.352 18.4945 139.16 20.2031 139.16 22.2844H135.237C135.237 21.2156 134.78 20.2945 133.866 19.5211C132.966 18.7477 131.827 18.3609 130.449 18.3609C129.028 18.3609 127.917 18.6703 127.116 19.2891C126.314 19.9078 125.913 20.7164 125.913 21.7148C125.913 22.657 126.286 23.3672 127.031 23.8453C127.777 24.3234 129.12 24.7805 131.06 25.2164C133.015 25.6523 134.597 26.1727 135.806 26.7773C137.016 27.382 137.909 28.1133 138.485 28.9711C139.076 29.8148 139.371 30.8484 139.371 32.0719C139.371 34.1109 138.556 35.7492 136.924 36.9867C135.293 38.2102 133.177 38.8219 130.575 38.8219C128.747 38.8219 127.13 38.4984 125.724 37.8516C124.317 37.2047 123.213 36.3047 122.412 35.1516C121.624 33.9844 121.231 32.7258 121.231 31.3758H125.133C125.203 32.6836 125.724 33.7242 126.694 34.4977C127.678 35.257 128.972 35.6367 130.575 35.6367C132.052 35.6367 133.233 35.3414 134.119 34.7508C135.019 34.1461 135.469 33.3445 135.469 32.3461Z" fill="#FF9901"/>
<path d="M147.831 38.4H143.928V15.5766H147.831V38.4ZM143.612 9.52266C143.612 8.88984 143.802 8.35547 144.181 7.91953C144.575 7.48359 145.152 7.26562 145.911 7.26562C146.67 7.26562 147.247 7.48359 147.641 7.91953C148.035 8.35547 148.231 8.88984 148.231 9.52266C148.231 10.1555 148.035 10.6828 147.641 11.1047C147.247 11.5266 146.67 11.7375 145.911 11.7375C145.152 11.7375 144.575 11.5266 144.181 11.1047C143.802 10.6828 143.612 10.1555 143.612 9.52266Z" fill="#FF9901"/>
<path d="M152.198 26.7773C152.198 24.5414 152.634 22.5305 153.506 20.7445C154.392 18.9586 155.615 17.5805 157.176 16.6102C158.751 15.6398 160.544 15.1547 162.555 15.1547C165.663 15.1547 168.173 16.2305 170.085 18.382C172.012 20.5336 172.975 23.3953 172.975 26.9672V27.2414C172.975 29.4633 172.546 31.4602 171.689 33.232C170.845 34.9898 169.628 36.3609 168.039 37.3453C166.464 38.3297 164.65 38.8219 162.597 38.8219C159.503 38.8219 156.993 37.7461 155.067 35.5945C153.154 33.443 152.198 30.5953 152.198 27.0516V26.7773ZM156.121 27.2414C156.121 29.7727 156.705 31.8047 157.872 33.3375C159.053 34.8703 160.628 35.6367 162.597 35.6367C164.58 35.6367 166.155 34.8633 167.322 33.3164C168.489 31.7555 169.073 29.5758 169.073 26.7773C169.073 24.2742 168.475 22.2492 167.28 20.7023C166.099 19.1414 164.524 18.3609 162.555 18.3609C160.628 18.3609 159.074 19.1273 157.893 20.6602C156.712 22.193 156.121 24.3867 156.121 27.2414Z" fill="#FF9901"/>
<path fill-rule="evenodd" clip-rule="evenodd" d="M8 0C3.58172 0 0 3.58172 0 8V28.8C0 39.4039 8.59613 48 19.2 48C29.8039 48 38.4 39.4039 38.4 28.8V8C38.4 3.58172 34.8183 0 30.4 0H8ZM9.60104 6C5.62459 6 2.40104 9.22355 2.40104 13.2C2.40104 17.1764 5.62459 20.4 9.60104 20.4H28.801C32.7775 20.4 36.001 17.1764 36.001 13.2C36.001 9.22355 32.7775 6 28.801 6H9.60104Z" fill="#FF9901"/>
<circle cx="11.9991" cy="13.2" r="2.4" fill="#FF9901"/>
<circle cx="26.4" cy="13.2" r="2.4" fill="#FF9901"/>
</svg>
