<svg width="119" height="33" viewBox="0 0 119 33" fill="none" xmlns="http://www.w3.org/2000/svg">
<path d="M4.12834 28.4795H18.8877V31.8378H0V0.693432H4.12834V28.4795Z" fill="#FF9901"/>
<path d="M36.3645 31.8378C36.1363 31.3815 35.9509 30.5687 35.8083 29.3993C33.9688 31.3102 31.7727 32.2656 29.2201 32.2656C26.9385 32.2656 25.0632 31.6239 23.5944 30.3405C22.1399 29.0428 21.4126 27.4029 21.4126 25.4207C21.4126 23.0107 22.3253 21.1426 24.1506 19.8164C25.9902 18.476 28.5713 17.8057 31.8939 17.8057H35.7442V15.9875C35.7442 14.6043 35.3306 13.5063 34.5035 12.6934C33.6764 11.8663 32.4572 11.4528 30.8458 11.4528C29.434 11.4528 28.2504 11.8093 27.295 12.5223C26.3395 13.2353 25.8618 14.0981 25.8618 15.1105H21.8832C21.8832 13.9555 22.2896 12.8432 23.1025 11.7736C23.9296 10.6899 25.0419 9.83425 26.4394 9.2068C27.8511 8.57935 29.3984 8.26562 31.0811 8.26562C33.7477 8.26562 35.8369 8.93586 37.3485 10.2763C38.86 11.6025 39.6444 13.435 39.7014 15.7736V26.4261C39.7014 28.5508 39.9723 30.2407 40.5142 31.4956V31.8378H36.3645ZM29.7977 28.8218C31.0383 28.8218 32.2148 28.5009 33.3271 27.8592C34.4394 27.2175 35.2451 26.3833 35.7442 25.3565V20.6079H32.6426C27.7941 20.6079 25.3698 22.0268 25.3698 24.8646C25.3698 26.1052 25.7834 27.0749 26.6105 27.7736C27.4376 28.4724 28.5 28.8218 29.7977 28.8218Z" fill="#FF9901"/>
<path d="M58.5044 25.6988C58.5044 24.6293 58.098 23.8022 57.2851 23.2175C56.4866 22.6186 55.0819 22.1052 53.0712 21.6774C51.0748 21.2496 49.4848 20.7362 48.3012 20.1373C47.1318 19.5384 46.262 18.8253 45.6916 17.9982C45.1354 17.1712 44.8573 16.1872 44.8573 15.0464C44.8573 13.1498 45.6559 11.5455 47.2531 10.2335C48.8645 8.9216 50.9179 8.26562 53.4135 8.26562C56.0374 8.26562 58.1621 8.94299 59.7878 10.2977C61.4277 11.6524 62.2477 13.3851 62.2477 15.4956H58.2691C58.2691 14.4118 57.8056 13.4777 56.8787 12.6934C55.9661 11.9091 54.811 11.517 53.4135 11.517C51.9732 11.517 50.8466 11.8307 50.0338 12.4581C49.221 13.0856 48.8146 13.9056 48.8146 14.918C48.8146 15.8735 49.1924 16.5936 49.9482 17.0785C50.704 17.5633 52.0659 18.0268 54.0338 18.4688C56.016 18.9109 57.6203 19.4385 58.8466 20.0517C60.073 20.6649 60.9785 21.4064 61.5632 22.2763C62.1621 23.1319 62.4616 24.1801 62.4616 25.4207C62.4616 27.4884 61.6345 29.1498 59.9803 30.4047C58.3261 31.6453 56.18 32.2656 53.5418 32.2656C51.688 32.2656 50.0481 31.9376 48.622 31.2817C47.196 30.6257 46.0766 29.713 45.2637 28.5437C44.4652 27.3601 44.0659 26.0838 44.0659 24.7148H48.0231C48.0944 26.041 48.622 27.0963 49.606 27.8806C50.6042 28.6507 51.9162 29.0357 53.5418 29.0357C55.0392 29.0357 56.237 28.7362 57.1354 28.1373C58.0481 27.5241 58.5044 26.7113 58.5044 25.6988Z" fill="#FF9901"/>
<path d="M80.2165 25.6988C80.2165 24.6293 79.8101 23.8022 78.9972 23.2175C78.1986 22.6186 76.794 22.1052 74.7833 21.6774C72.7869 21.2496 71.1969 20.7362 70.0133 20.1373C68.8439 19.5384 67.9741 18.8253 67.4036 17.9982C66.8475 17.1712 66.5694 16.1872 66.5694 15.0464C66.5694 13.1498 67.368 11.5455 68.9651 10.2335C70.5765 8.9216 72.63 8.26562 75.1256 8.26562C77.7494 8.26562 79.8742 8.94299 81.4999 10.2977C83.1398 11.6524 83.9598 13.3851 83.9598 15.4956H79.9812C79.9812 14.4118 79.5177 13.4777 78.5908 12.6934C77.6781 11.9091 76.5231 11.517 75.1256 11.517C73.6853 11.517 72.5587 11.8307 71.7459 12.4581C70.9331 13.0856 70.5266 13.9056 70.5266 14.918C70.5266 15.8735 70.9045 16.5936 71.6603 17.0785C72.4161 17.5633 73.778 18.0268 75.7459 18.4688C77.7281 18.9109 79.3323 19.4385 80.5587 20.0517C81.7851 20.6649 82.6906 21.4064 83.2753 22.2763C83.8742 23.1319 84.1737 24.1801 84.1737 25.4207C84.1737 27.4884 83.3466 29.1498 81.6924 30.4047C80.0382 31.6453 77.8921 32.2656 75.2539 32.2656C73.4001 32.2656 71.7601 31.9376 70.3341 31.2817C68.9081 30.6257 67.7887 29.713 66.9758 28.5437C66.1773 27.3601 65.778 26.0838 65.778 24.7148H69.7352C69.8065 26.041 70.3341 27.0963 71.3181 27.8806C72.3163 28.6507 73.6282 29.0357 75.2539 29.0357C76.7512 29.0357 77.9491 28.7362 78.8475 28.1373C79.7601 27.5241 80.2165 26.7113 80.2165 25.6988Z" fill="#FF9901"/>
<path d="M92.7521 31.8378H88.7949V8.69343H92.7521V31.8378ZM88.474 2.55439C88.474 1.91268 88.6665 1.37079 89.0516 0.928727C89.4508 0.486659 90.0355 0.265625 90.8056 0.265625C91.5756 0.265625 92.1603 0.486659 92.5596 0.928727C92.9589 1.37079 93.1585 1.91268 93.1585 2.55439C93.1585 3.19611 92.9589 3.73087 92.5596 4.15867C92.1603 4.58648 91.5756 4.80038 90.8056 4.80038C90.0355 4.80038 89.4508 4.58648 89.0516 4.15867C88.6665 3.73087 88.474 3.19611 88.474 2.55439Z" fill="#FF9901"/>
<path d="M97.1808 20.0517C97.1808 17.7843 97.6228 15.7451 98.507 13.9341C99.4054 12.123 100.646 10.7255 102.229 9.74156C103.826 8.7576 105.644 8.26562 107.683 8.26562C110.835 8.26562 113.38 9.35653 115.32 11.5384C117.273 13.7202 118.25 16.6221 118.25 20.2442V20.5223C118.25 22.7754 117.815 24.8004 116.945 26.5972C116.09 28.3797 114.856 29.7701 113.245 30.7683C111.648 31.7665 109.808 32.2656 107.726 32.2656C104.589 32.2656 102.044 31.1747 100.09 28.9929C98.1505 26.8111 97.1808 23.9234 97.1808 20.3298V20.0517ZM101.159 20.5223C101.159 23.0892 101.751 25.1498 102.935 26.7041C104.133 28.2585 105.73 29.0357 107.726 29.0357C109.737 29.0357 111.334 28.2514 112.518 26.6827C113.701 25.0998 114.293 22.8895 114.293 20.0517C114.293 17.5134 113.687 15.4599 112.475 13.8913C111.277 12.3084 109.68 11.517 107.683 11.517C105.73 11.517 104.154 12.2941 102.956 13.8485C101.758 15.4029 101.159 17.6275 101.159 20.5223Z" fill="#FF9901"/>
</svg>
